<svg xmlns="http://www.w3.org/2000/svg" xmlns:xlink="http://www.w3.org/1999/xlink" width="150.437" height="50.528" viewBox="0 0 150.437 50.528">
  <defs>
    <clipPath id="clip-path">
      <rect id="Rectangle_83" data-name="Rectangle 83" width="150.437" height="50.528" fill="none"/>
    </clipPath>
  </defs>
  <g id="Group_61" data-name="Group 61" transform="translate(0 0)">
    <g id="Group_60" data-name="Group 60" transform="translate(0 0)" clip-path="url(#clip-path)">
      <path id="Path_115" data-name="Path 115" d="M35.758,23.055a.363.363,0,0,0-.059-.008h.012c4.661-1.305,8.75-5.245,8.75-10.52C44.461,6.809,41.588,0,28.456,0H9.116L0,50.528H30.325c7.737,0,16.614-5,16.614-14.39,0-5.047-3.454-11.284-11.181-13.083" transform="translate(0 0)" fill="#fff"/>
      <path id="Path_116" data-name="Path 116" d="M179.362,27.929c-3.053,0-7.9,1.793-7.9,7.814,0,6.077,3.977,7.786,8.094,7.786a12.262,12.262,0,0,0,6.722-1.793l-1.989-3.361a9.344,9.344,0,0,1-4.313,1.373c-1.624,0-2.717-.476-3-2.437h9.607v-.84c0-7.478-4.257-8.542-7.226-8.542m-2.325,6.218c.336-1.708,1.2-2.353,2.3-2.353,1.317,0,2.128.56,2.353,2.353Z" transform="translate(-48.172 -7.847)" fill="#fff"/>
      <path id="Path_117" data-name="Path 117" d="M101.791,25.806a5.184,5.184,0,0,0-4.453,2.605V20.373H91.793V41.1h5.545V39.474a5.347,5.347,0,0,0,4.4,1.849c3.417,0,5.658-2.577,5.658-7.731s-2.213-7.786-5.6-7.786m-2.156,11.4a3.089,3.089,0,0,1-2.3-.952V31.436a3.491,3.491,0,0,1,2.241-1.092c1.849,0,2.269,1.429,2.269,3.277,0,2.129-.56,3.585-2.213,3.585" transform="translate(-25.789 -5.724)" fill="#fff"/>
      <path id="Path_118" data-name="Path 118" d="M156.715,21.308H151.17v5.041H144.9V21.308h-5.545v5.041h-2.437v3.977h2.437v6.525c0,2.913.476,4.705,5.573,4.705a25.886,25.886,0,0,0,3.389-.252V37.44a6.506,6.506,0,0,1-1.457.168c-1.568,0-1.96-.392-1.96-1.989V30.326h6.274v6.525c0,2.913.476,4.705,5.573,4.705a25.886,25.886,0,0,0,3.389-.252V37.44a6.5,6.5,0,0,1-1.456.168c-1.569,0-1.961-.392-1.961-1.989V30.326h3.837V26.349h-3.837Z" transform="translate(-38.465 -5.987)" fill="#fff"/>
      <path id="Path_119" data-name="Path 119" d="M205.132,27.929a5.171,5.171,0,0,0-4.677,2.6h-.028V28.209h-5.545V43.221h5.545V34.091a5.2,5.2,0,0,1,3.361-1.372c.393,0,1.176.083,1.4.111v-4.9Z" transform="translate(-54.751 -7.847)" fill="#fff"/>
      <path id="Path_120" data-name="Path 120" d="M123.334,27.929c-3.053,0-7.9,1.793-7.9,7.814,0,6.077,3.977,7.786,8.094,7.786a12.262,12.262,0,0,0,6.722-1.793l-1.989-3.361a9.344,9.344,0,0,1-4.313,1.373c-1.624,0-2.717-.476-3-2.437h9.607v-.84c0-7.478-4.257-8.542-7.226-8.542m-2.325,6.218c.336-1.708,1.2-2.353,2.3-2.353,1.317,0,2.128.56,2.353,2.353Z" transform="translate(-32.431 -7.847)" fill="#fff"/>
    </g>
  </g>
</svg>
