<?xml version="1.0" encoding="UTF-8"?> <svg xmlns="http://www.w3.org/2000/svg" xmlns:xlink="http://www.w3.org/1999/xlink" version="1.1" id="Layer_1" x="0px" y="0px" viewBox="0 0 701.3 233.4" style="enable-background:new 0 0 701.3 233.4;" xml:space="preserve"> <style type="text/css"> .st0{fill:#475369;} .st1{fill:#71AD47;} .st2{clip-path:url(#SVGID_00000121265523003652611250000012047738070542373763_);fill:#71AD47;} .st3{clip-path:url(#SVGID_00000047041762195404917930000001312978017478309813_);} </style> <g id="Group_690" transform="translate(-260 -36.711)"> <g id="Group_84" transform="translate(260 36.711)"> <path id="Subtraction_10" class="st0" d="M124.6,3.6L124.6,3.6c1,0.1,2,0.2,3,0.3c53.4,5.4,95.6,47.7,101,101.1 c0.8,7.7,0.8,15.5,0,23.2c-5.4,53.4-47.6,95.6-101,101.1c-1,0.1-2,0.2-3,0.3v-17.8c52.5-4.7,91.3-51,86.6-103.5 c-4.1-46-40.6-82.6-86.6-86.6L124.6,3.6z"></path> <path id="Subtraction_18" class="st1" d="M109.3,229.4L109.3,229.4c-1-0.1-2-0.2-3-0.3c-53.4-5.4-95.7-47.6-101.1-101.1 c-0.8-7.7-0.8-15.5,0-23.2C10.6,51.5,52.8,9.3,106.2,3.9c1-0.1,2-0.2,3-0.3v17.8c-35.1,3.2-65.7,25.4-79.5,57.9 c-3.9,9.1-6.3,18.7-7.1,28.6h86v17.1h-86c4.1,46,40.6,82.4,86.6,86.5V229.4z"></path> <path id="Union_10" class="st0" d="M159.1,168.7v-43.5h-21.7v43.5h-17.8v-104h17.8v42.8h21.7V64.7h17.8v104H159.1z"></path> </g> <g> <defs> <rect id="SVGID_1_" x="530.4" y="89.7" width="421.7" height="83.2"></rect> </defs> <clipPath id="SVGID_00000170960595593920146890000012878685237497354122_"> <use xlink:href="#SVGID_1_" style="overflow:visible;"></use> </clipPath> <path id="Path_55" style="clip-path:url(#SVGID_00000170960595593920146890000012878685237497354122_);fill:#71AD47;" d=" M694.1,170.9h-7.9v-38.2h-40.5v38.2h-8v-0.9c0-25.8,0-51.5,0-77.2c0-1,0-1,1-1c2,0,4,0,6,0c0.7,0,1,0.2,1,0.9 c0,10.4,0,20.8,0,31.2v1.1h40.5V91.7h7.9L694.1,170.9z"></path> <path id="Path_56" style="clip-path:url(#SVGID_00000170960595593920146890000012878685237497354122_);fill:#71AD47;" d=" M813.6,106.4l-6.3,4.7c-0.7-0.8-1.3-1.5-1.9-2.3c-6.6-7.6-16.3-11.7-26.3-11.4c-7.5-0.1-14.9,2.4-21,6.9c-6.9,5-11.5,12.6-12.8,21 c-1.1,6.2-0.6,12.6,1.6,18.5c3.1,8.7,9.8,15.5,18.4,18.9c8.2,3.4,17.4,3.8,25.8,1c6-2,11.3-5.5,15.5-10.2c0.3-0.3,0.6-0.7,0.9-1 c0.1,0,0.1-0.1,0.2-0.1l6.2,4.7c-0.2,0.2-0.3,0.5-0.5,0.7c-5.2,6.3-12.1,10.8-20,13c-8.7,2.6-18,2.8-26.8,0.4 c-15.2-3.4-26.8-15.7-29.4-31c-2.2-9.7-0.9-19.9,3.7-28.8c3.5-6.8,9-12.4,15.7-16.1c9-5,19.3-6.8,29.4-5.2 c6.6,0.8,13,3.3,18.4,7.1C808.1,99.8,811.1,102.9,813.6,106.4"></path> <path id="Path_57" style="clip-path:url(#SVGID_00000170960595593920146890000012878685237497354122_);fill:#71AD47;" d=" M538.4,131.9v31.3h37.3v7.7h-45.3v-1c0-25.7,0-51.4,0-77.2c0-1,0-1,1-1h44.3v7.6h-37.3v25h37.3c0,0.4,0,0.6,0,0.9 c0,1.9,0,3.8,0,5.7c0,0.7-0.2,0.9-0.9,0.9c-5.6,0-11.1,0-16.7,0C558.2,131.9,538.4,131.9,538.4,131.9z"></path> <path id="Path_58" style="clip-path:url(#SVGID_00000170960595593920146890000012878685237497354122_);fill:#71AD47;" d=" M824.4,170.9c0.9-1.9,1.7-3.7,2.5-5.5l29.5-62.9c1.6-3.4,3.2-6.8,4.7-10.2c0.3-0.7,0.8-0.7,1.4-0.7c0.5-0.1,1,0.2,1.1,0.7 c7.8,16.8,15.7,33.7,23.5,50.5c4.2,9,8.4,17.9,12.5,26.9l0.5,1.1c-0.3,0-0.5,0.1-0.7,0.1c-2.3,0-4.6,0-6.9,0c-0.4,0-0.9-0.2-1-0.6 c-3.8-8.2-7.7-16.5-11.5-24.7c-0.2-0.5-0.6-0.8-1.1-0.7c-11.1,0-22.2,0-33.3,0c-0.5-0.1-1,0.2-1.2,0.7 c-3.8,8.2-7.7,16.4-11.5,24.6c-0.2,0.5-0.6,0.8-1.2,0.7c-2.2,0-4.4,0-6.6,0L824.4,170.9z M862.4,107.7l-13.9,29.6h27.7 L862.4,107.7"></path> <path id="Path_59" style="clip-path:url(#SVGID_00000170960595593920146890000012878685237497354122_);fill:#71AD47;" d=" M610,99.4v71.5h-8V99.4h-17.9c0-0.3-0.1-0.6-0.1-0.8c0-2,0-4.1,0-6.1c0-0.7,0.2-0.8,0.8-0.8c14,0,28,0,42,0c0.6,0,0.8,0.2,0.8,0.8 c0,2,0,4.1,0,6.1c0,0.7-0.2,0.9-0.9,0.9c-5.3,0-10.6,0-15.9,0L610,99.4z"></path> <path id="Path_60" style="clip-path:url(#SVGID_00000170960595593920146890000012878685237497354122_);fill:#71AD47;" d=" M921.5,163.2h1.1c9.5,0,19,0,28.5,0c0.8,0,1,0.2,1,1c0,2.2,0,4.4,0,6.7h-38.5V91.7h2.4c1.6,0,3.1,0,4.7,0c0.6,0,0.8,0.2,0.8,0.8 c0,3.5,0,7,0,10.5L921.5,163.2L921.5,163.2z"></path> <path id="Path_61" style="clip-path:url(#SVGID_00000170960595593920146890000012878685237497354122_);fill:#71AD47;" d=" M720.7,170.9h-8v-0.9c0-25.7,0-51.5,0-77.2c0-1,0-1,1-1c2.1,0,4.2,0,6.3,0c0.5,0,0.7,0.2,0.7,0.7c0,0.5,0,1,0,1.5L720.7,170.9 L720.7,170.9z"></path> </g> <g id="Group_88" transform="translate(349.519 86.754)"> <g> <defs> <rect id="SVGID_00000064327296056730499230000015281119762751794338_" x="179.9" y="101.7" width="432.8" height="25.1"></rect> </defs> <clipPath id="SVGID_00000122718004808470847570000010088236232952882088_"> <use xlink:href="#SVGID_00000064327296056730499230000015281119762751794338_" style="overflow:visible;"></use> </clipPath> <g id="Group_87" style="clip-path:url(#SVGID_00000122718004808470847570000010088236232952882088_);"> <path id="Path_62" class="st0" d="M600.7,117.7h-6.4c-0.7,0-0.7,0-0.7-0.8c0-0.7,0-1.4,0-2.1c0-0.5,0-0.6,0.6-0.6 c3.4,0,6.8,0,10.1,0c0.5,0,0.6,0.1,0.6,0.6c0,2.7-0.9,5.4-2.5,7.6c-1.5,1.9-3.5,3.2-5.9,3.8c-2,0.5-4.1,0.6-6.1,0.2 c-3.5-0.5-6.5-2.4-8.5-5.2c-1.3-1.8-2-4-2.1-6.2c-0.1-1,0-2.1,0.1-3.1c0.5-3.1,2.3-5.9,4.9-7.8c2.1-1.5,4.6-2.4,7.2-2.4 c1.1,0,2.2,0,3.3,0.2c2.3,0.3,4.4,1.2,6.2,2.7c0.5,0.4,1,0.9,1.6,1.4c0.2,0.1,0.2,0.3,0.1,0.5c0,0-0.1,0.1-0.1,0.1 c-0.7,0.6-1.4,1.3-2,2c-0.2,0.2-0.4,0.2-0.6,0c-0.7-0.6-1.4-1.1-2.1-1.6c-2.1-1.4-4.6-2-7.1-1.5c-3.6,0.4-6.6,3.1-7.4,6.6 c-1.1,4.2,1.1,8.6,5,10.3c2.1,1,4.4,1.2,6.7,0.7c2.5-0.5,4.6-2.4,5.3-4.8c0-0.1,0-0.1,0-0.2 C600.7,117.8,600.7,117.8,600.7,117.7"></path> <path id="Path_63" class="st0" d="M434.8,126.7c-6.8,0.1-12.4-5.4-12.5-12.2c0-0.1,0-0.2,0-0.3c0-6.9,5.5-12.5,12.4-12.6 s12.5,5.5,12.6,12.4c0,0.1,0,0.2,0,0.3c0,6.8-5.4,12.3-12.2,12.3C435,126.7,434.9,126.7,434.8,126.7 M435.4,123.2 c2.3-0.1,4.5-1.2,6-3c1.2-1.4,1.9-3.1,2.1-5c0.3-2.1-0.3-4.3-1.5-6c-1.7-2.7-4.8-4.2-7.9-3.9c-1.9,0.1-3.8,0.9-5.2,2.2 c-2.4,2.2-3.5,5.5-2.7,8.6C427,120.4,431,123.5,435.4,123.2"></path> <path id="Path_64" class="st0" d="M467.6,118.8v-15.5c0-0.2,0-0.3,0-0.5c0-0.3,0.1-0.4,0.4-0.4h2.8c0.2,0,0.4,0.1,0.4,0.3 c0,0,0,0.1,0,0.1c0,0.2,0,0.3,0,0.5c0,7.3,0,14.7,0,22c0,0.9,0,0.9-0.9,0.9c-0.4,0-0.8,0-1.2,0c-0.3,0-0.6-0.1-0.8-0.4 c-1.6-2.1-3.2-4.2-4.8-6.3l-7.3-9.5c-0.1-0.1-0.1-0.2-0.2-0.3l-0.1,0.1v0.6c0,5,0,9.9,0,14.9c0,0.2,0,0.3,0,0.5 c0,0.3-0.1,0.4-0.4,0.4c-0.9,0-1.9,0-2.8,0c-0.3,0-0.4-0.1-0.4-0.4c0-0.2,0-0.3,0-0.5v-22c0-0.9,0-0.9,0.9-0.9c0.3,0,0.7,0,1,0 c0.4,0,0.8,0.2,1.1,0.5c1.7,2.2,3.4,4.5,5.1,6.7c2.3,3,4.6,6,6.8,9c0.1,0.1,0.2,0.2,0.3,0.3L467.6,118.8"></path> <path id="Path_65" class="st0" d="M571,118.7v-15.5c0-0.2,0-0.3,0-0.5c0-0.3,0.1-0.4,0.4-0.4h2.8c0.2,0,0.4,0.1,0.4,0.3 c0,0,0,0.1,0,0.1c0,0.2,0,0.3,0,0.5c0,7.3,0,14.7,0,22c0,0.9,0,0.9-0.9,0.9c-0.4,0-0.8,0-1.2,0c-0.4,0-0.7-0.1-0.9-0.4 c-1.2-1.6-2.5-3.3-3.8-4.9l-8.2-10.7c-0.1-0.2-0.3-0.3-0.4-0.3v15.6c0,0.2,0,0.3,0,0.5c0,0.2-0.1,0.3-0.3,0.3c0,0,0,0-0.1,0h-3 c-0.2,0-0.3-0.1-0.4-0.3c0,0,0-0.1,0-0.1c0-0.2,0-0.3,0-0.5v-22.1c0-0.1,0-0.2,0-0.3c0-0.3,0.1-0.5,0.5-0.5c0.6,0,1.2,0,1.8,0 c0.3,0,0.6,0.2,0.7,0.4c1.2,1.5,2.4,3.1,3.6,4.6c2.8,3.7,5.7,7.4,8.5,11.2c0.1,0.1,0.1,0.2,0.2,0.3L571,118.7"></path> <path id="Path_66" class="st0" d="M366.1,126c-0.3,0-0.5,0.1-0.6,0.1c-1,0-2,0-3,0c-0.3,0-0.6-0.2-0.8-0.5c-1.9-3-3.8-6-5.8-8.9 c-0.2-0.3-0.3-0.5-0.5-0.8c-0.1-0.1-0.2-0.2-0.3-0.3c-0.5-0.1-0.7,0-0.7,0.6c0,2.9,0,5.9,0,8.8c0,0.2,0,0.3,0,0.5 c0,0.5,0,0.6-0.6,0.6c-0.8,0-1.7,0-2.5,0c-0.6,0-0.6,0-0.6-0.6c0-1.7,0-3.4,0-5v-17.1c0-0.2,0-0.3,0-0.5c0-0.5,0.1-0.6,0.6-0.6 c2.5,0,4.9,0,7.4,0.1c1.5,0,3,0.5,4.3,1.4c1.3,1,2.2,2.4,2.3,4.1c0.2,1.1,0.1,2.2-0.3,3.3c-0.6,1.7-2,3.1-3.7,3.6 c-0.7,0.3-1.4,0.4-2.2,0.6L366.1,126 M354.4,108.9c0,0.9,0,1.8,0,2.7c0,0.3,0.1,0.5,0.4,0.5c1.3,0,2.6,0,3.9-0.1 c1.6,0.1,3-1.2,3.1-2.8c0,0,0-0.1,0-0.1c0.1-1.3-0.6-2.4-1.8-2.8c-0.6-0.2-1.1-0.3-1.7-0.4c-1.1-0.1-2.2,0-3.3,0 c-0.5,0-0.5,0-0.5,0.5C354.4,107.2,354.4,108.1,354.4,108.9"></path> <path id="Path_67" class="st0" d="M179.9,114.2c0-3.7,0-7.4,0-11.2c0-0.7,0-0.7,0.7-0.7c0.8,0,1.6,0,2.4,0c0.5,0,0.6,0,0.6,0.6 c0,2.6,0,5.2,0,7.9c0,0.2,0,0.3,0,0.5c0,0.5,0,0.5,0.5,0.5c2.9,0,5.9,0,8.8,0c0.5,0,0.5,0,0.5-0.6c0-2.6,0-5.1,0-7.7 c0-0.1,0-0.3,0-0.4c0-0.6,0-0.7,0.7-0.7c0.8,0,1.6,0,2.4,0c0.5,0,0.5,0,0.5,0.5c0,0.1,0,0.3,0,0.4v21.9c0,0.1,0,0.2,0,0.2 c0,0.7,0,0.7-0.7,0.7c-0.7,0-1.5,0-2.3,0c-0.7,0-0.7,0-0.7-0.7c0-3.1,0-6.2,0-9.3c0-0.9,0.1-0.9-0.9-0.9h-8.6 c-0.3,0-0.4,0.1-0.4,0.4c0,0.2,0,0.3,0,0.5c0,3.1,0,6.1,0,9.2c0,0.2,0,0.3,0,0.5c0,0.2-0.1,0.4-0.3,0.4c-1,0-2,0-3,0 c-0.2,0.1-0.3-0.1-0.3-0.3c0-0.2,0-0.3,0-0.5C179.9,121.5,179.9,117.9,179.9,114.2"></path> <path id="Path_68" class="st0" d="M292.1,114.2c0,3.7,0,7.3,0,11c0,0.2,0,0.3,0,0.5c0,0.2-0.1,0.4-0.3,0.4h-3 c-0.2,0-0.3-0.1-0.4-0.3c0,0,0,0,0-0.1c0-0.2,0-0.3,0-0.5v-9.1c0-0.2,0-0.3,0-0.5c0-0.2-0.1-0.4-0.3-0.4c0,0-0.1,0-0.1,0h-8.7 h-0.4c-0.2,0-0.4,0.1-0.4,0.4c0,0.2,0,0.3,0,0.5v9.3c0,0.7,0,0.7-0.8,0.7c-0.8,0-1.5,0-2.3,0c-0.5,0-0.5-0.1-0.5-0.5 c0-0.1,0-0.3,0-0.4v-22c0-0.1,0-0.2,0-0.3c0-0.6,0.1-0.6,0.6-0.6c0.8,0,1.6,0,2.4,0c0.6,0,0.6,0,0.6,0.6c0,2.7,0,5.4,0,8 c0,0.7,0,0.7,0.7,0.7h8.4c0.7,0,0.7,0,0.7-0.7c0-2.6,0-5.2,0-7.9c0-0.7,0-0.8,0.8-0.8s1.5,0,2.3,0c0.6,0,0.6,0,0.6,0.6 c0,1.9,0,3.8,0,5.7L292.1,114.2"></path> <path id="Path_69" class="st0" d="M309.8,126.7c-2.5,0-5-0.7-7.2-2c-2.2-1.4-3.9-3.5-4.8-5.9c-0.6-1.7-0.9-3.6-0.8-5.4 c0.1-4,2.3-7.7,5.7-9.7c1.8-1.1,3.8-1.8,5.9-1.9c2.3-0.2,4.6,0.2,6.7,1.1c1.7,0.8,3.3,1.9,4.5,3.4c0.3,0.4,0.3,0.4-0.1,0.7 c-0.6,0.6-1.3,1.1-1.9,1.7c-0.3,0.3-0.4,0.3-0.7,0c-0.7-0.8-1.5-1.5-2.4-2c-1.7-1-3.7-1.5-5.6-1.3c-2,0.1-3.9,0.9-5.4,2.2 c-1.6,1.4-2.7,3.3-2.9,5.4c-0.4,2.3,0.1,4.7,1.5,6.7c1.4,2,3.6,3.4,6,3.7c3.2,0.6,6.4-0.5,8.7-2.9c0.7-0.7,0.6-0.8,1.5,0 c0.5,0.5,1,1,1.5,1.4c0.3,0.2,0.3,0.4,0,0.7c-1.7,1.9-3.9,3.2-6.4,3.9c-0.3,0.1-0.5,0.1-0.8,0.2 C311.7,126.6,310.7,126.6,309.8,126.7"></path> <path id="Path_70" class="st0" d="M408.9,126.8c-2.9,0-5.8-0.9-8.1-2.6c-1.8-1.4-3.1-3.2-3.9-5.3c-0.6-1.7-0.9-3.6-0.8-5.4 c0.1-4,2.3-7.6,5.7-9.7c1.8-1.1,3.8-1.8,5.9-1.9c2.3-0.2,4.5,0.2,6.6,1.1c1.7,0.8,3.3,1.9,4.5,3.4c0.3,0.4,0.3,0.4-0.1,0.8 c-0.6,0.6-1.2,1.1-1.9,1.7c-0.4,0.3-0.4,0.3-0.7-0.1c-0.7-0.8-1.5-1.5-2.4-2c-1.7-1-3.6-1.5-5.6-1.3c-2.4,0.1-4.6,1.1-6.2,2.9 c-1.2,1.3-1.9,2.9-2.2,4.6c-0.4,2.4,0.1,4.8,1.5,6.8c1.4,2,3.6,3.3,6,3.6c3.2,0.5,6.4-0.5,8.6-2.9c0.7-0.7,0.6-0.8,1.4,0 c0.5,0.5,1,1,1.5,1.4c0.3,0.3,0.3,0.4,0,0.7c-1.8,2-4.3,3.5-6.9,4C411.1,126.6,410,126.6,408.9,126.8"></path> <path id="Path_71" class="st0" d="M322.9,126c0.2-0.6,0.4-1.1,0.6-1.5l7-16.4c0.7-1.7,1.5-3.5,2.2-5.2c0.1-0.4,0.5-0.6,0.9-0.6 c0.5,0,1,0,1.6,0c0.4-0.1,0.7,0.2,0.8,0.5c1.1,2.6,2.2,5.2,3.3,7.8c1.2,2.7,2.3,5.4,3.4,8.1c1,2.3,1.9,4.6,2.9,6.9 c0.2,0.5,0.2,0.5-0.4,0.5c-0.9,0-1.8,0-2.7,0c-0.3,0-0.6-0.1-0.7-0.4c-0.7-1.7-1.4-3.4-2.1-5.1c-0.3-0.7-0.3-0.7-1-0.7 c-2.9,0-5.9,0-8.8,0c-0.4-0.1-0.8,0.2-0.9,0.5c-0.7,1.7-1.4,3.4-2.1,5.1c-0.3,0.6-0.3,0.6-0.9,0.6c-0.8,0-1.6,0-2.4,0 C323.4,126.1,323.2,126.1,322.9,126 M334.4,107.9l-0.2,0c-1.2,2.8-2.3,5.5-3.5,8.4c2.4,0.1,4.7,0.1,7.1-0.1L334.4,107.9"></path> <path id="Path_72" class="st0" d="M218.9,126c0.2-0.5,0.3-0.9,0.5-1.3c2.1-5,4.2-9.9,6.3-14.9c1-2.3,2-4.7,3-7 c0.1-0.4,0.5-0.7,0.9-0.6c0.5,0,1,0,1.6,0c0.3,0,0.7,0.2,0.7,0.5c2.2,5.2,4.4,10.4,6.6,15.6c1,2.4,2,4.7,3,7.1 c0.2,0.6,0.2,0.6-0.4,0.6c-0.9,0-1.8,0-2.7,0c-0.3,0-0.6-0.2-0.7-0.5c-0.7-1.7-1.4-3.4-2.1-5.2c-0.3-0.6-0.3-0.6-0.9-0.6 c-3,0-5.9,0-8.9,0c-0.4-0.1-0.7,0.2-0.8,0.5c-0.7,1.7-1.5,3.5-2.2,5.2c-0.1,0.3-0.4,0.6-0.8,0.5c-0.9,0-1.7,0-2.6,0 C219.3,126.1,219.1,126,218.9,126 M230.4,107.9h-0.2l-3.5,8.3c2.4,0.2,4.7,0.2,7.1,0L230.4,107.9"></path> <path id="Path_73" class="st0" d="M369.9,114.2c0-3.7,0-7.3,0-11c0-0.2,0-0.3,0-0.5c0-0.2,0.1-0.4,0.3-0.4c0,0,0,0,0,0 c0.2,0,0.3,0,0.5,0h12.1c0.5,0,0.6,0.1,0.6,0.6c0,0.8,0,1.5,0,2.3c0,0.6,0,0.6-0.6,0.6h-8.2c-1,0-0.9-0.1-0.9,0.9 c0,1.4,0,2.8,0,4.2c0,0.7,0,0.7,0.7,0.7h8.2c0.2,0,0.3,0,0.5,0c0.2,0,0.4,0.1,0.4,0.3c0,0,0,0.1,0,0.1c0,0.9,0,1.8,0,2.7 c0,0.3-0.2,0.4-0.4,0.4h-8.7c-0.6,0-0.6,0-0.6,0.6c0,2.1,0,4.2,0,6.4c0,0.6,0,0.6,0.6,0.6h8.4c0.7,0,0.7,0,0.7,0.7 c0,0.7,0,1.5,0,2.3c0,0.5,0,0.5-0.5,0.5c-4.1,0-8.2,0-12.3,0c-0.5,0-0.6-0.1-0.6-0.6c0-2.1,0-4.3,0-6.4L369.9,114.2"></path> <path id="Path_74" class="st0" d="M511.2,110.9c0,2.6,0,5.2,0,7.8c0,1.8-0.6,3.6-1.7,5.1c-1.1,1.4-2.6,2.4-4.3,2.7 c-1.7,0.4-3.5,0.3-5.1-0.3c-1.9-0.7-3.4-2.2-4.1-4.1c-0.5-1.2-0.7-2.6-0.7-3.9c0-5.1,0-10.2,0-15.3c0-0.6,0-0.6,0.6-0.6 c0.8,0,1.6,0,2.4,0c0.6,0,0.6,0,0.6,0.7c0,3.6,0,7.3,0,10.9v4.3c0,0.9,0.2,1.8,0.5,2.7c0.4,1,1.3,1.8,2.3,2.1 c1.2,0.4,2.5,0.3,3.6-0.2c1.1-0.6,1.9-1.6,2.1-2.8c0.2-0.8,0.2-1.6,0.2-2.4v-14.3c0-0.1,0-0.3,0-0.4c0-0.5,0.1-0.6,0.6-0.6 c0.8,0,1.7,0,2.5,0c0.5,0,0.6,0,0.6,0.6C511.3,105.5,511.3,108.2,511.2,110.9L511.2,110.9"></path> <path id="Path_75" class="st0" d="M203.3,114.2c0-3.7,0-7.4,0-11c0-0.2,0-0.3,0-0.5c0-0.2,0.1-0.4,0.3-0.4c0,0,0,0,0,0 c0.1,0,0.3,0,0.4,0H216h0.3c0.3,0,0.4,0.1,0.4,0.4c0,0.9,0,1.8,0,2.7c0,0.2-0.1,0.4-0.3,0.4c0,0-0.1,0-0.1,0h-8.6 c-0.9,0-0.8,0-0.8,0.8c0,1.4,0,2.9,0,4.3c0,0.6,0,0.6,0.6,0.6h8.5c0.7,0,0.7,0,0.7,0.7c0,0.6,0,1.3,0,1.9c0,0.9,0,0.9-0.8,0.9 h-8.1c-0.9,0-0.8,0-0.8,0.8c0,2.1,0,4.1,0,6.2c0,0.7,0,0.7,0.7,0.7h8.4c0.7,0,0.7,0,0.7,0.7c0,0.7,0,1.5,0,2.3 c0,0.5,0,0.5-0.5,0.5c-4.1,0-8.2,0-12.3,0c-0.6,0-0.6,0-0.6-0.7C203.3,121.7,203.3,117.9,203.3,114.2"></path> <path id="Path_76" class="st0" d="M482.1,126.7c-2.8-0.1-5.2-1.7-6.5-4.2c-0.1-0.1-0.1-0.2-0.2-0.3c-0.4-0.7-0.4-0.7,0.3-1.1 c0.7-0.4,1.3-0.8,2-1.2c0.4-0.2,0.4-0.2,0.7,0.2c0.5,0.8,1.1,1.6,1.8,2.2c1.4,1.2,3.6,1.2,5-0.1c1-1,1.1-2.6,0.3-3.7 c-0.5-0.6-1.1-1.2-1.7-1.8c-1.1-1-2.3-2-3.5-2.9c-1-0.8-1.9-1.7-2.6-2.7c-1.9-2.6-1.4-6.2,1.2-8.1c0.7-0.5,1.6-0.9,2.5-1.1 c2-0.4,4,0,5.6,1.2c0.8,0.6,1.6,1.3,2.2,2.1c0.3,0.4,0.3,0.4-0.1,0.7c-0.6,0.5-1.3,1-1.9,1.5c-0.4,0.3-0.5,0.3-0.8-0.1 c-0.4-0.5-0.9-0.9-1.4-1.3c-0.9-0.8-2.2-1-3.3-0.6c-1.1,0.4-1.7,1.6-1.3,2.7c0.1,0.2,0.1,0.3,0.2,0.5c0.3,0.5,0.6,0.9,1,1.2 c1.3,1.1,2.6,2.2,3.9,3.2c1.2,0.9,2.2,2,3.1,3.2c2.1,2.9,1.4,7-1.5,9.1c-0.4,0.3-0.8,0.5-1.3,0.7 C484.5,126.6,483.3,126.8,482.1,126.7"></path> <path id="Path_77" class="st0" d="M263.1,116v-9.2c0-0.2,0-0.3,0-0.5c0-0.3-0.1-0.4-0.4-0.4c-0.6,0-1.1,0-1.7,0 c-0.7,0-1.4,0-2.1,0c-0.5,0-0.6-0.1-0.6-0.6c0-0.8,0-1.6,0-2.4c0-0.5,0.1-0.5,0.6-0.6c0.4,0,0.8,0,1.2,0h10.4c0.2,0,0.3,0,0.5,0 c0.5,0,0.6,0.1,0.6,0.6c0,0.8,0,1.6,0,2.4c0,0.5-0.1,0.5-0.5,0.5c-1.2,0-2.4,0-3.6,0c-0.6,0-0.6,0-0.6,0.7c0,6.2,0,12.5,0,18.7 c0,0.9,0,0.9-0.9,0.9c-0.7,0-1.4,0-2.1,0c-0.6,0-0.6,0-0.6-0.6C263.1,122.3,263.1,119.1,263.1,116"></path> <path id="Path_78" class="st0" d="M537.5,115.9v9.5c0,0.7,0,0.7-0.7,0.7c-0.8,0-1.6,0-2.4,0c-0.5,0-0.5,0-0.5-0.5 c0-1.2,0-2.4,0-3.6v-15.3c0-0.2,0-0.3,0-0.5c0-0.4-0.1-0.5-0.5-0.5c-1,0-2.1,0-3.1,0c-1.4,0-1.2,0.1-1.2-1.3c0-0.6,0-1.1,0-1.7 s0.1-0.6,0.6-0.6c0.6,0,1.3,0,1.9,0h9.6c0.2,0,0.3,0,0.5,0c0.6,0,0.6,0.1,0.6,0.6c0,0.8,0,1.6,0,2.4c0,0.5-0.1,0.6-0.6,0.6 c-1.1,0-2.2,0-3.4,0c-0.8,0-0.8,0-0.8,0.8L537.5,115.9"></path> <path id="Path_79" class="st0" d="M246.1,114.2c0-3.7,0-7.3,0-11c0-0.2,0-0.3,0-0.5c0-0.2,0.1-0.4,0.3-0.4c0,0,0.1,0,0.1,0 c1,0,1.9,0,2.9,0c0.2,0,0.4,0.1,0.4,0.3c0,0,0,0.1,0,0.1c0,0.2,0,0.3,0,0.5c0,6.1,0,12.3,0,18.4c0,0.2,0,0.3,0,0.5 c0,0.5,0,0.5,0.5,0.5c1.7,0,3.3,0,5,0c0.6,0,1.1,0,1.7,0s0.7,0.1,0.7,0.6c0,0.8,0,1.5,0,2.3c0,0.5-0.1,0.5-0.5,0.5 c-1,0-2,0-3.1,0h-7.1c-0.8,0-0.8,0-0.8-0.8C246.1,121.6,246.1,117.9,246.1,114.2"></path> <path id="Path_80" class="st0" d="M516.6,114.2v-11c0-0.2,0-0.3,0-0.5c0-0.2,0.1-0.3,0.3-0.4c0,0,0,0,0.1,0c1,0,2,0,3,0 c0.2,0,0.3,0.1,0.3,0.3c0,0,0,0,0,0.1c0,0.2,0,0.3,0,0.5c0,6.2,0,12.5,0,18.7c0,0.8-0.1,0.8,0.8,0.8h6.4c0.7,0,0.7,0.1,0.7,0.7 s0,1.3,0,2c0,0.8,0,0.8-0.8,0.8h-9.1c-0.4,0-0.7,0-1.1,0c-0.5,0-0.5-0.1-0.5-0.5c0-1.3,0-2.6,0-3.9L516.6,114.2"></path> <path id="Path_81" class="st0" d="M549.7,114.2c0,3.7,0,7.4,0,11c0,0.8,0,0.8-0.8,0.8c-0.8,0-1.5,0-2.3,0 c-0.5,0-0.5-0.1-0.5-0.5c0-0.1,0-0.2,0-0.3v-22c0-0.9,0-0.9,0.9-0.9h2c0.7,0,0.7,0,0.7,0.7c0,2.6,0,5.1,0,7.7V114.2"></path> </g> </g> </g> </g> </svg> 