<svg id="Layer_4" data-name="Layer 4" xmlns="http://www.w3.org/2000/svg" viewBox="0 0 472 372"><title>nhs-digital-logo_nhs-blue_rgb-01b</title><rect x="68" y="65.02" width="329.49" height="131.23" style="fill:#fff"/><path d="M124,237.33h18.22c20.43,0,38.47,6.86,38.47,33.3s-17.93,33.3-38.47,33.3H124Zm13.36,56.12h7.46a22.82,22.82,0,0,0,0-45.62h-7.46Z" style="fill:#231f20"/><path d="M190.09,233.6h12.79v12.21H190.09Zm0,21.19h12.79v49.14H190.09Z" style="fill:#231f20"/><path d="M259.57,254.79v44.37c0,13.36-5.34,26-26,26a43.16,43.16,0,0,1-17-3.34l1-10.9A36.87,36.87,0,0,0,232,315.24c14.12,0,14.8-10.59,14.8-19.09h-.2A17.53,17.53,0,0,1,231.35,304c-14.52,0-20-11.64-20-24.81,0-11.83,6.1-25.47,20.81-25.47a16.3,16.3,0,0,1,15.08,7.82h.2v-6.69h12.2Zm-12.79,24c0-8.39-3.25-15.26-10.68-15.26-8.72,0-11.44,8-11.44,15.56,0,6.67,3.53,14.89,10.89,14.89,8,0,11.23-6.91,11.23-15.13Z" style="fill:#231f20"/><path d="M271.12,233.6h12.8v12.21h-12.8Zm0,21.19h12.8v49.14h-12.8Z" style="fill:#231f20"/><path d="M301.57,264.14h-9.44v-9.35h9.44v-9.92l12.79-4.1V254.7h11.36v9.35H314.36V287c0,4.21,1.16,8.11,6,8.11a11.46,11.46,0,0,0,5.82-1.33l.39,10.12a33.78,33.78,0,0,1-9.44,1.15c-10,0-15.56-6.21-15.56-15.93V264.14Z" style="fill:#231f20"/><path d="M338.6,257.36a44,44,0,0,1,17.09-3.73c15,0,21.18,6.21,21.18,20.71v6.29c0,5,0,8.72.2,12.32s.28,7.15.56,10.9H366.36a62.36,62.36,0,0,1-.56-7.35h-.2a17.54,17.54,0,0,1-15.25,8.5c-8.72,0-17.18-5.25-17.18-14.6a14.46,14.46,0,0,1,8.39-14,38.84,38.84,0,0,1,16.5-2.85h7.06c0-7.91-3.53-10.6-11.07-10.6a25.79,25.79,0,0,0-15.26,5.34Zm15,38.36a10.91,10.91,0,0,0,9-4.36,16.33,16.33,0,0,0,2.68-10.12H359.7c-5.74,0-14.21,1-14.21,8.5,0,4.17,3.5,6,8.08,6Z" style="fill:#231f20"/><path d="M387.83,232.36h12.8v71.57h-12.8Z" style="fill:#231f20"/><path d="M388.05,79.4,381,101a55.56,55.56,0,0,0-24.13-5c-11.59,0-21,1.7-21,10.44,0,15.43,42.48,9.68,42.48,42.74,0,30.1-28.07,37.9-53.46,37.9A122.66,122.66,0,0,1,291,181.66l6.82-22.25c5.78,3.75,17.44,6.26,27,6.26,9.11,0,23.37-1.72,23.37-12.95,0-17.43-42.48-10.9-42.48-41.63,0-28.09,24.78-36.5,48.75-36.5,13.49,0,26.16,1.41,33.55,4.84m-84.2-3-22.73,109H251.81l9.72-46.64H226.88L217.2,185.3H187.87L210.66,76.44H240l-8.68,41.65h34.63l8.72-41.65h29.29Zm-104,0-23.19,109H140.2L117.34,110H117L101.69,185.3H74.21l23.36-109H134.1l22.43,75.61h.3l15.26-75.5ZM400.6,63.36h-336V198.62h336V63.38Z" style="fill:#005eb8"/></svg>